<mxfile host="app.diagrams.net" modified="2024-02-07T06:22:35.052Z" agent="Mozilla/5.0 (Windows NT 10.0; Win64; x64) AppleWebKit/537.36 (KHTML, like Gecko) Chrome/121.0.0.0 Safari/537.36" version="23.1.1" etag="kvNO6BP_eJhTeERnt3od" type="github">
  <diagram name="Halaman-1" id="wC-W_CFhpsWbEb2FXgyo">
    <mxGraphModel>
      <root>
        <mxCell id="0" />
        <mxCell id="1" parent="0" />
      </root>
    </mxGraphModel>
  </diagram>
</mxfile>
